<svg width="37" height="37" viewBox="0 0 37 37" fill="none" xmlns="http://www.w3.org/2000/svg">
<path d="M0 22.8406L14.0733 36.9139H22.6307L8.86671 23.0983L18.2747 13.6388L14.1249 9.28275L0 22.8406Z" fill="url(#paint0_linear)"/>
<path d="M22.6306 36.9139L36.5731 22.6707L36.519 14.0619L22.7906 27.9641L13.3515 18.5618L8.84084 23.0983L22.6306 36.9139Z" fill="url(#paint1_linear)"/>
<path d="M36.7556 14.2316L22.6823 0.158283L14.3569 0.312935L28.0436 14.2316L18.4809 23.6911L22.7854 27.9956L36.7556 14.2316Z" fill="url(#paint2_linear)"/>
<path d="M14.3568 0.287119L0.177899 14.2286L-0.000103275 22.8357L14.0982 9.30871L23.275 19L28.0177 14.2286L14.3568 0.287119Z" fill="url(#paint3_linear)"/>
<defs>
<linearGradient id="paint0_linear" x1="11.3411" y1="9.07655" x2="11.3411" y2="36.9139" gradientUnits="userSpaceOnUse">
<stop stop-color="#213F5C"/>
<stop offset="0.505208" stop-color="#64A1E9"/>
<stop offset="1" stop-color="#8B5BE1"/>
</linearGradient>
<linearGradient id="paint1_linear" x1="8.7535" y1="25.5778" x2="36.5903" y2="25.4028" gradientUnits="userSpaceOnUse">
<stop stop-color="#5E2A9D"/>
<stop offset="0.5" stop-color="#CD7CF3"/>
</linearGradient>
<linearGradient id="paint2_linear" x1="25.4145" y1="27.9956" x2="25.4145" y2="0.158281" gradientUnits="userSpaceOnUse">
<stop stop-color="#6A2C94"/>
<stop offset="0.473958" stop-color="#ADAFFF"/>
<stop offset="1" stop-color="#72C2FF"/>
</linearGradient>
<linearGradient id="paint3_linear" x1="28.0658" y1="12.0725" x2="0.234407" y2="11.497" gradientUnits="userSpaceOnUse">
<stop stop-color="#365388"/>
<stop offset="0.505208" stop-color="#71DFFE"/>
<stop offset="1" stop-color="#6FCCFE"/>
</linearGradient>
</defs>
</svg>
