<svg xmlns="http://www.w3.org/2000/svg" xmlns:xlink="http://www.w3.org/1999/xlink" viewBox="0 0 860 400"><defs><style>.cls-1{isolation:isolate;}.cls-2{fill:url(#radial-gradient);}.cls-3,.cls-4{fill:#2c2082;}.cls-3,.cls-38,.cls-4,.cls-48{mix-blend-mode:multiply;}.cls-3{opacity:0.1;}.cls-13,.cls-14,.cls-15,.cls-27,.cls-4{opacity:0.15;}.cls-5{fill:url(#linear-gradient);}.cls-6{fill:#2f46cc;}.cls-7{fill:url(#linear-gradient-2);}.cls-8{fill:#4a6abb;}.cls-9{fill:#3c3ca6;}.cls-10{fill:#2a2a93;}.cls-11{fill:url(#linear-gradient-3);}.cls-12{fill:#212184;}.cls-13,.cls-14,.cls-15,.cls-17,.cls-18,.cls-20,.cls-22,.cls-26,.cls-27,.cls-28,.cls-41,.cls-42{mix-blend-mode:screen;}.cls-13{fill:url(#linear-gradient-4);}.cls-14{fill:url(#linear-gradient-5);}.cls-15{fill:url(#linear-gradient-6);}.cls-16{fill:url(#linear-gradient-7);}.cls-17{fill:url(#radial-gradient-2);}.cls-18,.cls-20{opacity:0.35;}.cls-18{fill:url(#radial-gradient-3);}.cls-19{fill:url(#linear-gradient-8);}.cls-20{fill:url(#linear-gradient-9);}.cls-21,.cls-33,.cls-36{fill:#fff;}.cls-21{mix-blend-mode:overlay;}.cls-21,.cls-22,.cls-34,.cls-38,.cls-52{opacity:0.5;}.cls-22{fill:url(#linear-gradient-10);}.cls-23{fill:#5d7ee7;}.cls-24{fill:url(#linear-gradient-11);}.cls-25{fill:#4556ed;}.cls-26,.cls-33,.cls-53{opacity:0.2;}.cls-26{fill:url(#linear-gradient-12);}.cls-27{fill:url(#linear-gradient-13);}.cls-28{opacity:0.45;fill:url(#radial-gradient-4);}.cls-29{fill:url(#linear-gradient-14);}.cls-30{fill:#09b1d8;}.cls-31,.cls-34{fill:#2478dd;}.cls-32{fill:#0652c1;}.cls-33,.cls-40{mix-blend-mode:lighten;}.cls-34{mix-blend-mode:color-burn;}.cls-35{fill:url(#linear-gradient-15);}.cls-37{fill:url(#linear-gradient-16);}.cls-38{fill:#d61bdb;}.cls-39{fill:#45ede8;}.cls-40{fill:#76ffff;}.cls-40,.cls-51{opacity:0.25;}.cls-41,.cls-42{opacity:0.81;}.cls-41{fill:url(#radial-gradient-5);}.cls-42{fill:url(#radial-gradient-6);}.cls-43{fill:url(#linear-gradient-17);}.cls-44{fill:url(#linear-gradient-18);}.cls-45{fill:url(#linear-gradient-19);}.cls-46{fill:url(#linear-gradient-20);}.cls-47{fill:url(#linear-gradient-21);}.cls-48{fill:url(#linear-gradient-22);}.cls-49{opacity:0.65;fill:url(#linear-gradient-23);}.cls-50,.cls-51,.cls-52,.cls-53{fill:#aff1ff;}.cls-50{opacity:0.85;}</style><radialGradient id="radial-gradient" cx="610.96" cy="208.21" r="425.41" gradientTransform="translate(-2.88 -1.21) scale(1.01 1.01)" gradientUnits="userSpaceOnUse"><stop offset="0" stop-color="#3b93ff"/><stop offset="0.13" stop-color="#3989f4"/><stop offset="0.36" stop-color="#336ed8"/><stop offset="0.66" stop-color="#2a43aa"/><stop offset="0.99" stop-color="#1f0c70"/></radialGradient><linearGradient id="linear-gradient" x1="147.57" y1="271.63" x2="262.23" y2="186.59" gradientUnits="userSpaceOnUse"><stop offset="0" stop-color="#564cd8"/><stop offset="0.13" stop-color="#5256d9"/><stop offset="0.36" stop-color="#4970da"/><stop offset="0.65" stop-color="#399bdd"/><stop offset="0.99" stop-color="#24d6e0"/><stop offset="0.99" stop-color="#24d7e0"/></linearGradient><linearGradient id="linear-gradient-2" x1="213.53" y1="291.62" x2="259.47" y2="291.62" gradientUnits="userSpaceOnUse"><stop offset="0" stop-color="#8a96ff"/><stop offset="0.48" stop-color="#8a96ff"/></linearGradient><linearGradient id="linear-gradient-3" x1="69.9" y1="292.63" x2="199.95" y2="118.48" gradientUnits="userSpaceOnUse"><stop offset="0.01" stop-color="#2e2ea8"/><stop offset="0.24" stop-color="#3060bf"/><stop offset="0.61" stop-color="#33aae1"/><stop offset="0.87" stop-color="#35d9f7"/><stop offset="1" stop-color="#36ebff"/></linearGradient><linearGradient id="linear-gradient-4" x1="522.48" y1="178.94" x2="522.48" y2="-2.01" gradientUnits="userSpaceOnUse"><stop offset="0"/><stop offset="0.04" stop-color="#101010"/><stop offset="0.19" stop-color="#4f4f4f"/><stop offset="0.35" stop-color="#848484"/><stop offset="0.5" stop-color="#b0b0b0"/><stop offset="0.64" stop-color="#d3d3d3"/><stop offset="0.77" stop-color="#ebebeb"/><stop offset="0.9" stop-color="#fafafa"/><stop offset="1" stop-color="#fff"/></linearGradient><linearGradient id="linear-gradient-5" x1="368.18" y1="285.94" x2="716.1" y2="86.52" xlink:href="#linear-gradient-4"/><linearGradient id="linear-gradient-6" x1="596.98" y1="306.7" x2="820.7" y2="178.34" xlink:href="#linear-gradient-4"/><linearGradient id="linear-gradient-7" x1="124.8" y1="322.17" x2="219.46" y2="169.83" gradientUnits="userSpaceOnUse"><stop offset="0.01" stop-color="#2b2ba1"/><stop offset="0.99" stop-color="#32dbed"/></linearGradient><radialGradient id="radial-gradient-2" cx="691.69" cy="135.01" r="133.83" gradientTransform="translate(-2.88 -1.21) scale(1.01 1.01)" gradientUnits="userSpaceOnUse"><stop offset="0" stop-color="#fff"/><stop offset="1"/></radialGradient><radialGradient id="radial-gradient-3" cx="156.94" cy="68.21" r="62.07" gradientTransform="translate(-2.88 -1.21) scale(1.01 1.01)" gradientUnits="userSpaceOnUse"><stop offset="0" stop-color="#e859e9"/><stop offset="0.3" stop-color="#e658e7"/><stop offset="0.44" stop-color="#de55df"/><stop offset="0.55" stop-color="#d150d2"/><stop offset="0.64" stop-color="#bf49c0"/><stop offset="0.72" stop-color="#a740a8"/><stop offset="0.79" stop-color="#8a358b"/><stop offset="0.86" stop-color="#672767"/><stop offset="0.92" stop-color="#3e183f"/><stop offset="0.98" stop-color="#120712"/><stop offset="1"/></radialGradient><linearGradient id="linear-gradient-8" x1="18.9" y1="394.44" x2="879.56" y2="307.65" gradientUnits="userSpaceOnUse"><stop offset="0" stop-color="#4b3da2"/><stop offset="0.19" stop-color="#4571be"/><stop offset="0.37" stop-color="#3f9dd5"/><stop offset="0.55" stop-color="#3bbfe7"/><stop offset="0.72" stop-color="#38d7f4"/><stop offset="0.87" stop-color="#37e6fc"/><stop offset="1" stop-color="#36ebff"/></linearGradient><linearGradient id="linear-gradient-9" x1="257.96" y1="324.76" x2="333.66" y2="304.18" xlink:href="#linear-gradient-4"/><linearGradient id="linear-gradient-10" x1="387.73" y1="330.76" x2="572.87" y2="330.76" xlink:href="#linear-gradient-4"/><linearGradient id="linear-gradient-11" x1="171.46" y1="211.47" x2="209.68" y2="211.47" xlink:href="#linear-gradient-2"/><linearGradient id="linear-gradient-12" x1="231.75" y1="290.28" x2="259.47" y2="290.28" xlink:href="#linear-gradient-4"/><linearGradient id="linear-gradient-13" x1="147.95" y1="168.64" x2="168.09" y2="156.26" xlink:href="#linear-gradient-4"/><radialGradient id="radial-gradient-4" cx="309.18" cy="193.45" r="44.17" xlink:href="#radial-gradient-2"/><linearGradient id="linear-gradient-14" x1="288.59" y1="201.63" x2="349.67" y2="181.81" gradientTransform="matrix(1, 0.1, -0.1, 1, 19.68, -31.04)" gradientUnits="userSpaceOnUse"><stop offset="0" stop-color="#09b1d8"/><stop offset="0.18" stop-color="#28c7e3"/><stop offset="0.41" stop-color="#4adfef"/><stop offset="0.63" stop-color="#62f1f8"/><stop offset="0.83" stop-color="#71fbfd"/><stop offset="1" stop-color="#76ffff"/></linearGradient><linearGradient id="linear-gradient-15" x1="276.41" y1="203.9" x2="312.19" y2="203.9" xlink:href="#linear-gradient-14"/><linearGradient id="linear-gradient-16" x1="116.54" y1="86.76" x2="194.23" y2="46.48" gradientUnits="userSpaceOnUse"><stop offset="0" stop-color="#d61bdb"/><stop offset="0.09" stop-color="#d225dd"/><stop offset="0.25" stop-color="#c740e1"/><stop offset="0.45" stop-color="#b46be8"/><stop offset="0.68" stop-color="#9ba8f1"/><stop offset="0.95" stop-color="#7bf4fd"/><stop offset="0.98" stop-color="#76ffff"/></linearGradient><radialGradient id="radial-gradient-5" cx="134.17" cy="103.78" r="12.83" gradientTransform="translate(-2.88 -1.21) scale(1.01 1.01)" gradientUnits="userSpaceOnUse"><stop offset="0" stop-color="#45ede8"/><stop offset="0.99"/></radialGradient><radialGradient id="radial-gradient-6" cx="122" cy="92.62" r="3.83" xlink:href="#radial-gradient-5"/><linearGradient id="linear-gradient-17" x1="589.75" y1="120.76" x2="782.92" y2="185.14" gradientTransform="matrix(0.83, 0.55, -0.55, 0.83, 197.33, -378.71)" gradientUnits="userSpaceOnUse"><stop offset="0.01" stop-color="#94ffff"/><stop offset="0.24" stop-color="#92fbff"/><stop offset="0.46" stop-color="#8cf0ff"/><stop offset="0.68" stop-color="#81ddff"/><stop offset="0.9" stop-color="#72c2ff"/><stop offset="0.98" stop-color="#6bb5ff"/></linearGradient><linearGradient id="linear-gradient-18" x1="616.91" y1="112.69" x2="769.56" y2="112.69" gradientTransform="matrix(0.83, 0.55, -0.55, 0.83, 197.33, -378.71)" gradientUnits="userSpaceOnUse"><stop offset="0" stop-color="#d9ffff"/><stop offset="0.16" stop-color="#fff"/><stop offset="0.21" stop-color="#f4ffff"/><stop offset="0.36" stop-color="#d1ffff"/><stop offset="0.51" stop-color="#b6ffff"/><stop offset="0.67" stop-color="#a3ffff"/><stop offset="0.83" stop-color="#98ffff"/><stop offset="0.99" stop-color="#94ffff"/></linearGradient><linearGradient id="linear-gradient-19" x1="614.95" y1="146.05" x2="796.39" y2="146.05" xlink:href="#linear-gradient-18"/><linearGradient id="linear-gradient-20" x1="655.09" y1="97.3" x2="756.14" y2="97.3" gradientTransform="matrix(0.83, 0.55, -0.55, 0.83, 197.33, -378.71)" gradientUnits="userSpaceOnUse"><stop offset="0" stop-color="#fff"/><stop offset="0.05" stop-color="#f4ffff"/><stop offset="0.23" stop-color="#d1ffff"/><stop offset="0.42" stop-color="#b6ffff"/><stop offset="0.6" stop-color="#a3ffff"/><stop offset="0.79" stop-color="#98ffff"/><stop offset="0.99" stop-color="#94ffff"/></linearGradient><linearGradient id="linear-gradient-21" x1="642.42" y1="222.72" x2="744.07" y2="249.61" xlink:href="#linear-gradient-18"/><linearGradient id="linear-gradient-22" x1="663.48" y1="124.42" x2="782.79" y2="164.18" gradientTransform="matrix(1, 0, 0, 1, 0, 0)" xlink:href="#linear-gradient-17"/><linearGradient id="linear-gradient-23" x1="662.58" y1="127.12" x2="781.89" y2="166.89" gradientTransform="matrix(1, 0, 0, 1, 0, 0)" xlink:href="#linear-gradient-20"/></defs><g class="cls-1"><g id="Layer_1" data-name="Layer 1"><rect class="cls-2" width="860" height="400"/><path class="cls-3" d="M408.5,0H250.26V.33c.26,24.51,36.23,34.59,48,54.21,17,28.26-.9,58.76,5,88.72,4.7,23.65,24.28,41.18,35.35,62.62,10.82,20.93,13.24,45,15.48,68.49,4,41.73,7.94,84,4.95,125.63h16c4.69-10.86,7.91-22.14,8.38-34,.82-20.68-7-40.81-7.7-61.51-.87-24.74,8.36-48.93,8.26-73.7-.12-30.42-14.27-59.37-15.19-89.78-1.45-47.21,28.58-89.3,38.64-135.44C407.89,3.77,408.22,1.89,408.5,0Z"/><path class="cls-4" d="M860,245.46c-33.51,30.59-71.7,65.7-75.91,70.61-7.62,8.94-80,55.28-109,46.34-16.27-5-45,17.16-67.12,37.59H860Z"/><path class="cls-4" d="M298.3,261.63c-18.64-27.77-41.2-53.14-55.83-83.21C225,142.55,219.83,102,205.09,64.88,192.88,34.17,174.25,17.37,151.82,0H0V96.11c22.73,7.23,46.55,11.36,68.23,21.3,27,12.37,49.08,33,70.69,53.32L237,262.85c17.32,16.28,34.65,32.56,50.93,49.87,25.93,27.59,49,57.65,72.63,87.28h11.82l-30.67-60.62C328.3,312.87,314.84,286.29,298.3,261.63Z"/><polygon class="cls-5" points="249.91 331.06 107.08 328.05 109.12 288.83 112.75 218.72 113.12 211.47 114.17 209.03 120.66 193.88 130.22 149.16 157.28 143.15 157.38 143.13 166.36 177.09 171.46 196.39 209.68 226.54 249.91 331.06"/><polygon class="cls-6" points="171.46 196.39 161.4 210.29 152.35 259.54 173.13 217.5 209.68 226.54 171.46 196.39"/><polygon class="cls-7" points="259.47 288.85 231.75 296.55 222.08 299.24 213.53 286.01 245.39 284 259.47 288.85"/><polygon class="cls-8" points="259.47 288.85 258.21 318.63 228.67 319.51 222.09 299.24 259.47 288.85"/><polygon class="cls-9" points="222.09 299.24 238.51 294.72 237.17 311.8 226.95 313.14 222.09 299.24"/><polygon class="cls-6" points="157.38 143.13 142.79 155.19 131.22 303.43 109.12 288.83 103.06 284.83 112.75 218.72 114.17 209.03 120.66 193.88 130.22 149.16 157.38 143.13"/><polygon class="cls-10" points="231.92 330.69 228.31 325.07 227.8 324.29 227.69 324.12 226.55 322.35 225.62 320.91 218.49 309.84 185.54 258.7 183.9 258.2 157.06 250.01 154.26 249.16 149.33 247.65 148.97 247.03 137.21 226.74 127.2 209.46 123.73 195.94 123.08 193.42 121.81 188.49 110.71 145.29 108.09 135.09 87.66 121.48 80.93 117 64.84 63.73 43.71 70.77 39.38 107.13 38.69 112.98 18.57 138.1 11.53 182.32 0 192.3 0 345.65 45.25 343.01 46.33 342.95 78.54 341.07 106.41 339.44 232.81 332.07 231.92 330.69"/><polygon class="cls-11" points="227.69 324.12 12.2 334.08 10.19 320.01 22.26 258.37 37.68 206.11 38.35 135.09 50.42 119.68 51.76 74.11 64.84 63.73 80.93 117 108.09 135.09 127.2 209.46 149.33 247.65 185.54 258.7 227.69 324.12"/><polygon class="cls-12" points="0 192.3 0 265.1 8.07 207.19 9.94 193.72 11.53 182.32 0 192.3"/><path class="cls-10" d="M235.83,321l-8.11-.09L114.2,319.69,51.76,319l-30.17-2.51s17.6-83.92,27.15-93c8.07-7.64,74.44-30.15,74.44-30.15l1.31,2,30.87,48.21,39.23,13.06,37.64,58.71Z"/><path class="cls-13" d="M569.41,0c-36.71,17.79-95.47,49.54-112.7,77.9-25.65,42.2-19.62,30.15-55.83,48.23s-72.42,54.27-60.35,52.76,55.83-37.68,89-43.71,55.82-12.06,95-49.74C554.76,56.45,659.85,16.78,706.8,0Z"/><path class="cls-14" d="M842.26,0c-54.13,24.06-157,70.75-212,102-77,43.71-184.06,81.4-191.61,101s25.65,18.1-27.16,36.19-194.62,116.07-258,143.2A372.57,372.57,0,0,0,118.11,400H252.39c24.88-19.74,46.52-36.18,58-43.23,39.21-24.12,135.78-70.84,156.9-81.39s10.56-21.11,31.68-39.2,155.4-72.36,214.24-107C751,106.89,817.31,71,860,48.11V0Z"/><path class="cls-15" d="M860,143.72C769.3,187.6,612.22,266.94,619.35,276c5.71,7.24-111.3,71.07-211.83,124h68.41c50.15-28.34,99-56.61,122.65-72.25,59.41-39.23,66.74-64.51,90-75.41,13.82-6.47,102.17-48.16,171.46-80.86Z"/><polygon class="cls-16" points="232.23 315.4 227.72 320.93 224.77 324.53 114.19 319.69 52.77 317 61.32 263.73 77.41 252.17 81.94 225.03 124.48 195.42 155.37 243.63 194.59 256.69 232.23 315.4"/><polygon class="cls-12" points="194.59 256.69 148.32 263.23 129.72 314.99 94.01 312.47 131.22 256.44 155.37 243.63 194.59 256.69"/><polygon class="cls-12" points="61.32 263.73 51.76 319 14.8 313.48 33.66 265.61 61.32 263.73"/><path class="cls-17" d="M697.51,0h-9.39a134.63,134.63,0,1,0,9.39,0Z"/><ellipse class="cls-18" cx="154.97" cy="67.34" rx="62.43" ry="62.38"/><path class="cls-19" d="M860,370.44l-67.31-1.62h-.06l-18,7.47.67,0,.42,5.57-.12,0L769,384l1-5.7-2.52-.25,1.51-9.8-11.06-12.06-22.13,2,1.15-5.74L740,336.78l1.75-8.73L711.6,318l-138.73,9.75L457,335.89l-1,.07-1.89.13L430,320l-42.23,2.86-76.46,5.18V328l1.53-11.5.47-3.52-37-5.27-33.42-4.78-23.13,7-32.19-3-51.3,8L0,306v94H860Z"/><polygon class="cls-8" points="428.12 361.74 377.42 374.08 375.82 374.47 332.23 387.21 331.39 388.11 320.36 400 228.19 400 224.26 399.27 275.9 393.24 277.14 392.84 313.45 381.18 313.75 381.16 331.56 379.83 373.81 368.44 377.32 368.01 428.12 361.74"/><polygon class="cls-9" points="331.56 379.83 331.52 381.81 331.39 388.11 320.36 400 316.05 400 313.75 381.16 331.56 379.83"/><path class="cls-20" d="M313.28,313l-.47,3.52-78,26.64c34.49-19.39,41.13-30.2,41.46-35.43Z"/><polygon class="cls-9" points="277.14 392.84 276.72 400 228.19 400 224.26 399.27 275.9 393.24 277.14 392.84"/><polygon class="cls-9" points="428.12 361.74 377.42 374.08 377.32 368.01 428.12 361.74"/><path class="cls-21" d="M860,370.44l-67.31-1.62h-.06l-18,7.47.67,0,.42,5.57-.12,0L769,384l1-5.7-2.52-.25,1.51-9.8-11.06-12.06-22.13,2,1.15-5.74c-2.76,1.08-5.37,2.57-6.65,5.15-3.68,7.4,6.54,15.47,4.87,23.57-4.93,3.95-11.36,5.35-17,8.11-4.56,2.22-9,6-10.23,10.71h108c7.44-4.78,14.67-9.89,22.41-14.15A81.84,81.84,0,0,1,860,377.73Z"/><polygon class="cls-8" points="278.08 326.5 271.51 329.02 234.83 343.13 143.8 344.11 142.29 344.13 112.6 352.83 100.86 356.28 53.66 370.12 49.75 371.27 0 375.91 0 400 97.54 400 103.44 398.12 107.03 396.98 143.8 385.27 180.54 373.56 185.18 372.08 206.66 365.24 232.07 361.06 276.08 353.81 277.25 353.62 292.16 351.17 298.19 336.09 311.28 327.99 312.28 327.38 313.28 312.98 278.08 326.5"/><polygon class="cls-10" points="53.66 370.12 49.75 371.27 0 375.91 0 400 47.1 400 53.77 370.26 53.66 370.12"/><polygon class="cls-10" points="234.83 343.13 232.07 361.06 206.66 365.24 185.18 372.08 188.06 359.71 180.54 373.56 143.8 385.27 143.8 344.11 234.83 343.13"/><polygon class="cls-10" points="143.8 344.11 102.06 345.14 12.03 329.56 93.5 338.6 174.73 343.88 143.8 344.11"/><polygon class="cls-9" points="298.19 336.09 316.64 346.81 387.71 349.83 311.27 349.83 292.16 351.17 298.19 336.09"/><polygon class="cls-10" points="112.6 352.83 107.03 396.98 103.44 398.12 100.86 356.28 112.6 352.83"/><polygon class="cls-9" points="112.6 352.83 88.22 352.42 34.91 340.36 85.96 353.43 100.86 356.28 112.6 352.83"/><polygon class="cls-9" points="278.08 326.37 278.08 326.5 277.25 353.62 276.08 353.81 271.79 329.06 271.51 329.02 213.37 323.7 278.08 326.37"/><polygon class="cls-8" points="769.94 378.3 768.96 384 727.44 396.9 717.48 400 687.63 400 729.23 389.04 769.94 378.3"/><polygon class="cls-9" points="768.93 368.25 767.42 378.05 745.97 376.79 768.93 368.25"/><polygon class="cls-8" points="791.06 377.13 775.73 381.89 775.31 376.32 791.06 377.13"/><polygon class="cls-9" points="791.06 377.13 775.6 381.94 774.68 376.23 791.06 377.13"/><polygon class="cls-9" points="729.23 389.04 727.44 396.9 717.48 400 687.63 400 729.23 389.04"/><path class="cls-21" d="M456,336l1-.07Z"/><path class="cls-21" d="M741.77,328.05,740,336.78c-25.89,5.32-61.51,12.42-58.93,10.7,4-2.68,8-13.07,15.75-20.77C704.06,319.5,485,334,457,335.89L711.6,318Z"/><polygon class="cls-9" points="741.77 328.05 685.41 345.35 626.4 350.04 533.87 373.49 496.99 373.49 438.65 388.9 498.33 376.84 536.55 378.85 629.09 354.73 687.96 351.29 735.99 358.33 741.77 328.05"/><path class="cls-22" d="M572.87,327.75c-44.24,4.83-116.36,12.77-121.45,13.7-5.27,1-42.75-11.43-63.69-18.58L430,320l24.14,16.08L456,336l1-.07Z"/><polygon class="cls-23" points="64.84 63.73 51.76 74.11 43.72 70.76 64.84 63.73"/><polygon class="cls-6" points="50.42 119.68 38.35 135.09 18.57 138.1 38.69 112.97 50.42 119.68"/><polygon class="cls-12" points="81.94 225.03 77.41 252.17 36 258.37 41.37 241.62 81.94 225.03"/><polygon class="cls-12" points="37.68 206.11 7.67 207.2 9.72 193.63 37.68 206.11"/><polygon class="cls-10" points="80.93 117 99.04 188.35 87.64 121.35 80.93 117"/><polygon class="cls-6" points="50.42 119.68 55.28 158.7 46.98 124.03 50.42 119.68"/><polygon class="cls-12" points="22.99 255.89 0 273.12 0 305.85 12.95 305.94 13.21 305.94 23.27 255.69 22.99 255.89"/><polygon class="cls-12" points="30.47 229.89 10.86 244.3 28.63 236.93 35.33 242.96 30.47 229.89"/><polygon class="cls-12" points="43.72 70.76 51.76 74.11 50.42 119.68 50.51 75.03 43.72 70.76"/><polygon class="cls-12" points="26.36 171.52 38.18 162.47 45.22 168 38.27 156.94 26.36 171.52"/><polygon class="cls-6" points="155.37 243.63 131.22 256.44 148.32 263.23 194.59 256.69 155.37 243.63"/><polygon class="cls-12" points="81.94 225.03 99.04 254.35 95.01 301.58 95.35 255.02 79.93 236.93 81.94 225.03"/><polygon class="cls-10" points="77.41 252.17 78.17 286.59 73.14 255.1 77.41 252.17"/><polygon class="cls-21" points="79.93 236.93 95.35 255.02 95.01 301.58 93 255.69 79.93 236.93"/><polygon class="cls-21" points="37.68 206.11 38.18 162.47 45.22 168 39.36 164.23 37.68 206.11"/><polygon class="cls-21" points="38.35 135.09 46.98 124.03 55.28 158.7 46.82 128.3 38.35 135.09"/><polygon class="cls-10" points="109.12 206.11 110.95 253.43 115.09 200.41 109.12 206.11"/><polygon class="cls-21" points="81.94 225.03 109.12 206.11 110.95 253.43 108.22 208.33 81.94 225.03"/><polygon class="cls-10" points="165.51 260.8 149.5 255.67 175.82 259.29 173.13 301.84 165.51 260.8"/><polygon class="cls-21" points="148.32 263.23 165.51 260.8 173.13 301.84 164.08 262.22 148.32 263.23"/><polygon class="cls-24" points="171.46 196.39 173.13 217.5 209.68 226.54 171.46 196.39"/><polygon class="cls-25" points="146.98 150.66 151.17 208.62 151.34 146.81 146.98 150.66"/><polygon class="cls-25" points="186.38 221.35 180.34 206.94 191.74 222.52 191.24 251.17 186.38 221.35"/><path class="cls-26" d="M259.47,288.85l-27.72,7.7c9.73-5.09,13.64-12.55,13.64-12.55Z"/><path class="cls-27" d="M166.36,177.1a27.48,27.48,0,0,1-10.57-9.52c-6.29-10.3-13.08-12.31-13.08-12.31l14.57-12.12.1,0Z"/><polygon class="cls-25" points="157.38 143.13 142.79 155.19 130.22 149.16 157.38 143.13"/><ellipse class="cls-28" cx="308.09" cy="193.21" rx="44.42" ry="44.39"/><path class="cls-29" d="M340.14,195.69a32.1,32.1,0,1,1-28.89-35A32,32,0,0,1,340.14,195.69Z"/><path class="cls-30" d="M340.15,189.56c0-.5-.11-1-.18-1.49s-.14-.92-.22-1.38-.25-1.14-.38-1.7c-.09-.37-.19-.74-.29-1.09s-.18-.6-.28-.9c-.16-.54-.33-1.05-.53-1.56-.1-.27-.2-.54-.32-.8s-.21-.54-.33-.8l-.33-.75a6.8,6.8,0,0,0-.56.63,19.1,19.1,0,0,1-2.65,2.49,20.35,20.35,0,0,1-3.47,2.22,6.59,6.59,0,0,1-.75.38c-.31.16-.65.31-1,.44s-.59.25-.89.35l-.22.09-.95.32-.6.18c-.54.16-1.08.3-1.61.41a21.26,21.26,0,0,1-4,.54c-7,.33-12.94-2.67-14.62-7.88a9.59,9.59,0,0,1-.45-2.9,7.87,7.87,0,0,1,0-.84q0-.37.09-.75c0-.09,0-.2.05-.29s.08-.42.14-.64a6.48,6.48,0,0,1,.24-.83c.08-.27.18-.54.29-.81s.25-.56.38-.84.26-.49.4-.74l.11-.19c.11-.2.23-.39.36-.58l.18-.27c.13-.2.28-.4.43-.6a7.91,7.91,0,0,1,.52-.66c.24-.28.49-.57.75-.84a16.57,16.57,0,0,1,1.48-1.41c.34-.29.7-.58,1.07-.86l.76-.54.57-.39.17-.1a23.78,23.78,0,0,1,4.2-2.07l.12-.05c-.8-.25-1.61-.47-2.45-.67s-1.66-.35-2.51-.48l-.47-.07-1.15-.13h-.1c-.55,0-1.12-.1-1.67-.12a31.33,31.33,0,0,0-3.63,0l-.68.06-1,.11-.89.12-.93.16c-.63.11-1.24.24-1.84.39l-.92.23c-.53.15-1.05.31-1.58.48l-1.23.44-.72.29-.86.36-.84.38-.55.27-.28.14a1.32,1.32,0,0,1,.2.12,14.67,14.67,0,0,1,7,8.21,13.4,13.4,0,0,1,.4,1.57,13.78,13.78,0,0,1,0,5.16c-.88,4.81-4.15,9.54-9,13.15a33.25,33.25,0,0,1-3.72,2.38c-.43.23-.86.45-1.29.65a1.2,1.2,0,0,1-.23.11c-.42.21-.86.41-1.3.6s-1,.42-1.53.6-1,.38-1.55.55a33,33,0,0,1-4.52,1.09c-.48.09-.95.16-1.42.22.08.42.16.83.25,1.23s.18.76.28,1.15c0,0,0,.1,0,.15.08.3.17.6.26.9a4.68,4.68,0,0,0,.17.53c.09.29.19.57.29.85a.14.14,0,0,0,0,.06c.13.37.27.74.41,1.1.3.77.63,1.52,1,2.26l.57,1.09c.19.36.39.71.6,1.07.41.71.86,1.39,1.32,2.07a32.87,32.87,0,0,0,3.1,3.79c.23.25.47.49.71.73a.62.62,0,0,0,.14.14,4.58,4.58,0,0,1,.46-.42q.33-.25.69-.48a4.56,4.56,0,0,1,1-.46,4.92,4.92,0,0,1,6.28,2.92,4.38,4.38,0,0,1-.17,3.09,4.57,4.57,0,0,1-.52.94,33.16,33.16,0,0,0,5.55,2.23,29.67,29.67,0,0,0,3.19.76c.93.17,1.89.31,2.85.4.48,0,.95.09,1.41.11s1.13.05,1.68.05l1.12,0c.43,0,.86,0,1.3-.08l1.14-.11,1.13-.14H313l1.16-.2c.51-.09,1-.2,1.53-.32l.49-.13.25-.06.43-.12.69-.2c0-.24,0-.48,0-.74s0-.37,0-.56,0-.41.06-.61.07-.55.12-.84.09-.58.15-.87A23.66,23.66,0,0,1,319,216c.09-.23.18-.46.28-.68s.16-.38.25-.57.16-.37.25-.54.21-.44.33-.66c.22-.43.46-.86.73-1.29a7.18,7.18,0,0,1,.39-.63,23.53,23.53,0,0,1,2.24-3,25.45,25.45,0,0,1,4.55-4.09,6.62,6.62,0,0,1,.64-.44,5.39,5.39,0,0,1,.5-.33,26.92,26.92,0,0,1,6.23-2.9c.14,0,.27-.09.41-.12a25.42,25.42,0,0,1,3.62-.82c.08-.34.15-.69.22-1s.12-.56.17-.83c0-.08,0-.16,0-.24.12-.69.21-1.41.28-2.12A32.19,32.19,0,0,0,340.15,189.56Zm-44.6,6.35c3.43-1.09,6.85,0,7.64,2.48.71,2.22-.94,4.8-3.79,6.08a8.87,8.87,0,0,1-1,.39L298,205c-3.28.86-6.44-.25-7.2-2.62a3.33,3.33,0,0,1-.13-1.5c0-.11,0-.22.05-.33a3.93,3.93,0,0,1,.28-.86c0-.11.1-.23.16-.34s0,0,0-.05.14-.25.22-.37a6,6,0,0,1,.6-.77c.1-.12.22-.24.34-.36l.37-.33.4-.31,0,0,.45-.29A7.94,7.94,0,0,1,295.55,195.91Zm28.75,7c-.28.14-.53.25-.78.35s-.69.27-1.06.39c-5.11,1.64-10.21,0-11.4-3.71a5.31,5.31,0,0,1-.22-2.05l0-.27a4,4,0,0,1,.09-.48,3.6,3.6,0,0,1,.12-.44.31.31,0,0,1,0-.13c0-.07,0-.14.07-.22a3.73,3.73,0,0,1,.15-.38l.05-.11c.08-.18.16-.35.26-.53a3.09,3.09,0,0,1,.17-.29,7.74,7.74,0,0,1,.59-.86c.13-.17.27-.35.42-.51a11,11,0,0,1,1.75-1.56,12.86,12.86,0,0,1,3.61-1.81c5.12-1.64,10.22,0,11.41,3.7a5.33,5.33,0,0,1,.13,2.66C329.25,199.08,327.23,201.46,324.3,202.9Z"/><path class="cls-31" d="M324.29,202.9a14.27,14.27,0,0,1-1.83.74c-5.11,1.63-10.22,0-11.4-3.71-.91-2.83.76-6,3.9-8.1-4,2-6.33,5.68-5.3,8.91,1.19,3.68,6.29,5.34,11.41,3.7A13,13,0,0,0,324.29,202.9Z"/><path class="cls-31" d="M306,179.25c-1.7-5.3,1.56-11.29,7.58-15.07-6.9,3.68-10.81,10.19-9,15.88,2.16,6.73,11.47,9.75,20.81,6.76a23.64,23.64,0,0,0,5.37-2.5,24.19,24.19,0,0,1-4,1.7C317.49,189,308.18,186,306,179.25Z"/><path class="cls-32" d="M299.43,204.46a10.11,10.11,0,0,1-1,.4c-3.43,1.09-6.85,0-7.64-2.49-.59-1.82.42-3.86,2.35-5.25-2.82,1.29-4.46,3.85-3.75,6.06.79,2.47,4.21,3.58,7.64,2.48A8.49,8.49,0,0,0,299.43,204.46Z"/><path class="cls-31" d="M329.35,203.66a24.72,24.72,0,0,0-13.22,20.05c.46-.12.92-.24,1.37-.38A24.52,24.52,0,0,1,329.35,203.66Z"/><path class="cls-32" d="M285.62,215.44a1.85,1.85,0,0,1,.14.14,4.58,4.58,0,0,1,.46-.42A4.66,4.66,0,0,0,285.62,215.44Z"/><path class="cls-32" d="M281.16,198a33.6,33.6,0,0,0,7.28-3.31,35.74,35.74,0,0,1-5.88,2.51,35.18,35.18,0,0,1-5.95,1.32c0,.19.09.38.13.57A33.12,33.12,0,0,0,281.16,198Z"/><ellipse class="cls-33" cx="319.1" cy="180.14" rx="16.25" ry="19.81" transform="translate(-35.38 272.97) rotate(-44.12)"/><ellipse class="cls-33" cx="323.13" cy="177.56" rx="9.24" ry="12.69" transform="translate(-32.52 274.78) rotate(-44.08)"/><path class="cls-34" d="M322.48,221.35a32.08,32.08,0,1,1-28.6-57.44C288.85,180.29,286.34,209.57,322.48,221.35Z"/><path class="cls-35" d="M307.77,224.63a33.71,33.71,0,0,1-30.36-36.77,33.37,33.37,0,0,1,3.73-12.5,32.05,32.05,0,0,0,24,49.21,34.79,34.79,0,0,0,3.67.12C308.45,224.67,308.11,224.66,307.77,224.63Z"/><path class="cls-36" d="M326.58,170.24c2.52,2.75,3,6.41,1,8.19s-5.55,1-8.06-1.76-3-6.41-1.05-8.19S324.07,167.5,326.58,170.24Z"/><path class="cls-36" d="M327,183.65c.94,1.14,1,2.61.25,3.28s-2.24.28-3.18-.87-1.06-2.61-.25-3.28S326,182.5,327,183.65Z"/><path class="cls-37" d="M198.38,67c0,.63,0,1.25,0,1.87A43.7,43.7,0,0,1,176.26,105c-.6.34-1.21.67-1.83,1a43.87,43.87,0,0,1-42.71-1.74c-.87-.54-1.72-1.1-2.55-1.7a43.8,43.8,0,0,1-10.7-10.94q-.72-1.05-1.38-2.13a43.86,43.86,0,0,1-4.65-34.09c.15-.55.31-1.1.49-1.63a43.77,43.77,0,0,1,67.62-22c.93.67,1.83,1.39,2.7,2.14a44.26,44.26,0,0,1,10.18,12.83A44,44,0,0,1,198,61.36,44,44,0,0,1,198.38,67Z"/><path class="cls-38" d="M164.69,95.88a41.92,41.92,0,0,1-35.36-64.53,43.73,43.73,0,1,0,66.31,50.92A41.87,41.87,0,0,1,164.69,95.88Z"/><path class="cls-39" d="M156.73,108.85a46.48,46.48,0,0,1-45.65-37.71,43.74,43.74,0,0,0,69,31.39A46.26,46.26,0,0,1,156.73,108.85Z"/><ellipse class="cls-33" cx="166.71" cy="50.57" rx="20.7" ry="27.26" transform="translate(20.16 144.76) rotate(-49.6)"/><path class="cls-36" d="M165,31.15c2.43,2.07,3.12,5.24,1.55,7.08s-4.82,1.66-7.24-.41-3.12-5.24-1.55-7.08S162.61,29.08,165,31.15Z"/><path class="cls-36" d="M177.14,36.65c1.59,1.36,2.05,3.44,1,4.66S175,42.4,173.39,41s-2-3.44-1-4.66S175.54,35.28,177.14,36.65Z"/><path class="cls-40" d="M195.62,51.7c-8.52,1.38-17.31,1.88-25.74,4.41a105.65,105.65,0,0,0-30.52,14.52,84.85,84.85,0,0,0-20.89,21q-.72-1.05-1.38-2.13c.37-.66.76-1.31,1.13-1.95,4.29-7.38,8.69-14.9,15.1-20.53,7.42-6.54,17-10.05,26.24-13.41s22.72-8.39,33.87-6.83A42.69,42.69,0,0,1,195.62,51.7Z"/><path class="cls-40" d="M198.38,67c0,.63,0,1.25,0,1.87-7.79-1.48-16-.46-22.25,4.23a46.11,46.11,0,0,0-7.79,8.06,8.5,8.5,0,0,0-2.09,3.65c-.52,2.78,1.71,5.2,3.49,7.39A37,37,0,0,1,176.26,105c-.6.34-1.21.67-1.83,1A29.32,29.32,0,0,0,171,97.08c-3.49-5.79-10.2-10.12-16.85-8.93-3.56.63-6.67,2.7-9.66,4.72-4.75,3.2-9.72,6.71-12.77,11.39-.87-.54-1.72-1.1-2.55-1.7a22.73,22.73,0,0,1,6.89-8.91c7.74-5.86,18.76-5.77,26.56-11.54,3.85-2.84,6.61-6.91,10-10.29a36.49,36.49,0,0,1,21.89-10.14c.86-.08,2.11-.23,3.49-.32A44,44,0,0,1,198.38,67Z"/><path class="cls-40" d="M120,55.69c-.9,0-1.78-.12-2.67-.19-1.11-.09-3,0-4.85-.1.15-.55.31-1.1.49-1.63A36.2,36.2,0,0,0,120,55.69Z"/><path class="cls-40" d="M183.25,33.94A60.41,60.41,0,0,0,136,48.67c-2.47,2.24-4.84,4.76-7.92,6a17.1,17.1,0,0,1-7,1.05c.22,0,.45,0,.67,0,3.65-.35,6.81-2.69,9.34-5.35s4.64-5.71,7.38-8.15c6.25-5.58,15-7.29,23.22-8.78,6.14-1.12,12.72-2.13,18.87-1.62C181.48,32.47,182.38,33.19,183.25,33.94Z"/><ellipse class="cls-41" cx="132.06" cy="103.09" rx="12.91" ry="12.9"/><path class="cls-42" d="M123.68,91.87A3.86,3.86,0,1,1,119.82,88,3.85,3.85,0,0,1,123.68,91.87Z"/><path class="cls-21" d="M571.91,117q-5.6-4.7-11-9.56l-.15.77q5.29,4.74,10.74,9.29c3.75,3.14,7.56,6.2,11.4,9.22.21-.09.42-.21.64-.32Q577.64,121.81,571.91,117ZM858.6,216.52A46.61,46.61,0,0,0,854.17,204a121.38,121.38,0,0,0-15-22l-.41-.48c-4.72-5.59-9.72-10.95-14.91-16.08-.91-.91-1.82-1.8-2.74-2.69-6.44-6.25-13.17-12.21-20-18q-4.12-3.47-8.32-6.81c-1.34-1.09-2.69-2.16-4-3.2-.28-.23-.54-.44-.81-.64q-2.46-1.93-4.95-3.83-9.87-7.55-20.06-14.66-2.13-1.5-4.29-3s0,0-.07-.06c-.18-.12-.36-.25-.54-.36-2.32-1.6-4.63-3.16-7-4.71q-7.32-4.89-14.78-9.57c-2.14-1.37-4.29-2.7-6.46-4-2.66-1.66-5.35-3.27-8-4.88s-5.55-3.3-8.33-4.92Q701.62,77.33,689.58,71c-.94-.5-1.86-1-2.8-1.46q-10.17-5.33-20.52-10.27c-1.92-.93-3.84-1.83-5.77-2.73q-.56-.27-1.11-.51c-.62-.29-1.24-.58-1.87-.85-2.55-1.19-5.12-2.35-7.69-3.48q-6-2.66-12-5.15-10.27-4.26-20.71-8.09l-4.62-1.64q-4.49-1.57-9-3A277.58,277.58,0,0,0,565.8,24a120.58,120.58,0,0,0-26.63-2A47.4,47.4,0,0,0,526,24.39a24,24,0,0,0-6,3.14A15.84,15.84,0,0,0,513.38,39a23.41,23.41,0,0,0,.3,6.74,46.85,46.85,0,0,0,4.49,12.61A116.23,116.23,0,0,0,532.2,79l1.07,1.3a279.16,279.16,0,0,0,27.47,27.88q5.29,4.74,10.74,9.29c3.75,3.14,7.56,6.2,11.4,9.22,2.09,1.64,4.19,3.27,6.32,4.88q5.87,4.47,11.87,8.79c4.31,3.11,8.65,6.14,13,9.14q12.82,8.76,26,16.88,7.82,4.86,15.76,9.47l.07,0c1.11.65,2.21,1.3,3.31,1.93,15.42,8.86,31.14,17.18,47.19,24.84.48.23,1,.46,1.46.68q5.94,2.84,12,5.53,2.64,1.18,5.29,2.34,7.07,3.1,14.24,6c1.91.77,3.83,1.54,5.75,2.29,2.39.93,4.79,1.85,7.19,2.73,1.07.41,2.14.8,3.2,1.19,9.58,3.46,19.25,6.66,29.08,9.35,7.33,2,14.73,3.72,22.21,5a120.56,120.56,0,0,0,26.55,2,46.92,46.92,0,0,0,13.07-2.41,23.3,23.3,0,0,0,5.91-3.09,15.63,15.63,0,0,0,6.49-11.22A23.56,23.56,0,0,0,858.6,216.52Zm.14,6.64a15.23,15.23,0,0,1-6.43,11.14,23.37,23.37,0,0,1-5.88,3.07,46.62,46.62,0,0,1-13,2.39,121,121,0,0,1-26.52-2.06c-7.44-1.34-14.79-3-22.08-5-9.84-2.7-19.56-5.91-29.16-9.4l-3-1.11c-2.42-.91-4.81-1.83-7.21-2.77-1.91-.76-3.83-1.52-5.73-2.29q-7.14-2.9-14.18-6-2.53-1.11-5-2.25-6.13-2.76-12.2-5.66c-.56-.26-1.11-.52-1.65-.79-16-7.69-31.71-16.06-47.09-25l-3.17-1.85L654,174.19q-6.68-3.94-13.3-8-13.34-8.24-26.27-17.09-6.75-4.63-13.41-9.45-6-4.31-11.81-8.78-2.87-2.19-5.69-4.42-5.88-4.6-11.61-9.4t-11-9.56a278.36,278.36,0,0,1-27-27.58c-.35-.42-.7-.84-1-1.28A114.79,114.79,0,0,1,518.87,58a46.53,46.53,0,0,1-4.41-12.39c-.78-4.29-.5-8.88,1.68-12.66s6-6.31,10.14-7.77a46.43,46.43,0,0,1,13-2.37,119,119,0,0,1,26.42,2.06,275.72,275.72,0,0,1,37.11,9.56q4.29,1.4,8.54,2.89,2.78,1,5.54,2,10.11,3.7,20,7.85c4,1.66,8,3.36,11.94,5.13,2.64,1.16,5.26,2.34,7.88,3.55.67.3,1.35.61,2,.94l.22.1c2.31,1.06,4.62,2.16,6.92,3.25Q676.79,65.36,687.55,71l.93.49Q700.84,78,712.93,85q4.43,2.55,8.82,5.15c2.43,1.44,4.84,2.89,7.26,4.36,2.24,1.36,4.47,2.74,6.71,4.14q7.32,4.55,14.52,9.3,3.63,2.4,7.22,4.84l.65.43.49.34c1.27.86,2.54,1.73,3.79,2.61q10.33,7.16,20.38,14.76,2.46,1.84,4.9,3.76c.34.25.68.52,1,.8,1.34,1,2.69,2.1,4,3.18q4,3.19,8,6.49c6.83,5.72,13.52,11.61,19.95,17.78,1,1,2,2,3.05,3,5.12,5,10,10.27,14.7,15.75q.26.27.48.54A120.8,120.8,0,0,1,854,204.07a46.84,46.84,0,0,1,4.47,12.47A23.73,23.73,0,0,1,858.74,223.16Z"/><path class="cls-43" d="M776,189.37a101.88,101.88,0,0,1-111.56,42.21c-2.42-.64-4.81-1.38-7.19-2.23a101.83,101.83,0,0,1-67.06-110.54q.45-3.16,1.1-6.33A101.4,101.4,0,0,1,606,77.3l.62-.91a101.76,101.76,0,0,1,140.48-28Q749,49.68,750.89,51a101.1,101.1,0,0,1,18,16.71,98.64,98.64,0,0,1,8.73,12c.54.83,1,1.69,1.54,2.55a101.78,101.78,0,0,1-3.15,107Z"/><path class="cls-44" d="M748.58,128.21a71.8,71.8,0,0,1-64.94,6.41c-30-12.05-49-43.27-77-58.23a101.81,101.81,0,0,1,13-15.63,22.74,22.74,0,0,0,.31,5.8,37.94,37.94,0,0,0,5.18,11.69C630.73,87,638.93,93.63,647,100.14c20.13,16.27,42.77,33.43,68.64,32.34,15.86-.67,31-8.53,42-19.9,9-9.24,15.52-20.65,20-32.8.54.83,1,1.69,1.54,2.55A71.91,71.91,0,0,1,748.58,128.21Z"/><path class="cls-45" d="M751.31,193.82c-13.2,11.56-31.5,18.48-48.59,14.5-14.17-3.31-25.63-13.38-36.45-23.1q-32.74-29.43-65.51-58.86c-3.23-2.9-6.6-5.88-10.55-7.55q.45-3.16,1.1-6.33a67.17,67.17,0,0,1,13.41,8c19.29,14.59,34.82,33.6,53.61,48.8s42.86,26.79,66.65,22.37c21.2-3.93,38.53-20.16,48.78-39.11,6.54-12.12,10.6-25.37,13.55-38.76.42-1.92.68-6,1.22-9.84a102,102,0,0,1,3.89,20c-4,8.85-7.7,17.87-11.76,26.7C773.33,166.55,764.5,182.25,751.31,193.82Z"/><path class="cls-46" d="M768.9,67.73c-1.64.43-3.27.87-4.86,1.46C744.51,76.53,739,104,719.74,112c-12,5-25.72.83-37.63-4.35-8.59-3.74-17.12-8.12-23.57-14.91S648,76.39,649.86,67.21s10.82-17,20.08-15.64c-7.89-.57-14.7,7-15.4,14.87s3.4,15.49,8.77,21.3c15.86,17.11,44.37,20.67,64,8a49.91,49.91,0,0,0,19.68-26c2-5.86,2-12.69,3.94-18.71A101.1,101.1,0,0,1,768.9,67.73Z"/><path class="cls-47" d="M664.46,231.58c-2.42-.64-4.81-1.38-7.19-2.23-2.85-12.08-5.54-24.23-11.16-35.2a59.23,59.23,0,0,0-11.58-15.83c-10.56-10.09-25.74-14.61-40.23-13.16a102,102,0,0,1-3.37-13.08,63.63,63.63,0,0,1,63.35,40.8C659.08,205.35,659.88,219.11,664.46,231.58Z"/><path class="cls-48" d="M792.42,123.91a101.89,101.89,0,0,0-13.25-41.58c-.49-.86-1-1.72-1.54-2.55a98.64,98.64,0,0,0-8.73-12,101.1,101.1,0,0,0-18-16.71q-1.85-1.35-3.78-2.62a103.48,103.48,0,0,0-14.59-8c.14.17.28.32.42.48a106.68,106.68,0,0,1,9.37,12.92c.57.89,1.11,1.81,1.64,2.73A109.13,109.13,0,0,1,637.06,219.62a101.64,101.64,0,0,0,20.21,9.73c2.38.85,4.77,1.59,7.19,2.23a101.82,101.82,0,0,0,128-107.67Z"/><path class="cls-49" d="M792.42,123.91a101.89,101.89,0,0,0-13.25-41.58c-.49-.86-1-1.72-1.54-2.55a98.64,98.64,0,0,0-8.73-12,100.61,100.61,0,0,0-14.47-14,101.16,101.16,0,0,1,19.18,22.71c.54.83,1,1.69,1.53,2.55a101.8,101.8,0,0,1-114.7,149.25c-2.42-.64-4.81-1.38-7.19-2.23a99.51,99.51,0,0,1-14-6.18c-.72-.06-1.43-.12-2.15-.2a101.64,101.64,0,0,0,20.21,9.73c2.38.85,4.77,1.59,7.19,2.23a101.82,101.82,0,0,0,128-107.67Z"/><path class="cls-33" d="M624.32,72.42A94.93,94.93,0,0,0,600.91,130c-.72,14.82,2.51,30.58,12.62,41.44s28.21,14.94,40.25,6.25c8.25-6,12.06-16.17,18.31-24.2,10.81-13.92,28.65-21,39.55-34.83a48.73,48.73,0,0,0,7.27-46.15c-5.67-15.34-23.71-32.85-41.32-30.74C657.82,44.14,637.18,57.85,624.32,72.42Z"/><path class="cls-33" d="M635.35,68.83a55,55,0,0,0-18.35,31c-1.69,8.44-1.18,17.75,3.69,24.85s14.9,11,22.55,7c5.24-2.71,8.3-8.24,12.57-12.32,7.39-7.06,18.23-9.58,25.66-16.6A28.23,28.23,0,0,0,689.59,77c-1.94-9.28-10.78-20.86-21.07-21.16C657,55.47,644,61.57,635.35,68.83Z"/><path class="cls-36" d="M651.47,113.65c-3.47,3.76-8.48,4.78-11.2,2.28s-2.1-7.57,1.37-11.33,8.48-4.78,11.19-2.29S654.94,109.89,651.47,113.65Z"/><ellipse class="cls-36" cx="645.55" cy="73.28" rx="20.13" ry="14.52" transform="translate(153.63 497.68) rotate(-47.26)"/><path class="cls-50" d="M228.46,212.47a1.68,1.68,0,1,1-1.68-1.67A1.68,1.68,0,0,1,228.46,212.47Z"/><path class="cls-50" d="M361.23,24.87a1.68,1.68,0,1,1-1.68-1.68A1.68,1.68,0,0,1,361.23,24.87Z"/><path class="cls-50" d="M310.27,18.17a1.68,1.68,0,1,1-1.68-1.68A1.68,1.68,0,0,1,310.27,18.17Z"/><path class="cls-50" d="M511.43,237.6a1.68,1.68,0,1,1-1.67-1.68A1.67,1.67,0,0,1,511.43,237.6Z"/><path class="cls-50" d="M494.34,261.72a1.68,1.68,0,1,1-1.68-1.68A1.68,1.68,0,0,1,494.34,261.72Z"/><path class="cls-50" d="M441,216.83a1.68,1.68,0,1,1-1.68-1.68A1.68,1.68,0,0,1,441,216.83Z"/><path class="cls-50" d="M262.66,253a1.68,1.68,0,1,1-1.68-1.68A1.68,1.68,0,0,1,262.66,253Z"/><path class="cls-50" d="M262.32,117.66a1.68,1.68,0,1,1-1.68-1.67A1.68,1.68,0,0,1,262.32,117.66Z"/><path class="cls-51" d="M260.48,33.08a1.26,1.26,0,1,1-1.26-1.26A1.26,1.26,0,0,1,260.48,33.08Z"/><path class="cls-51" d="M219.74,37.1a1.26,1.26,0,1,1-1.26-1.26A1.25,1.25,0,0,1,219.74,37.1Z"/><circle class="cls-51" cx="222" cy="20.01" r="1.26"/><circle class="cls-51" cx="200.12" cy="11.97" r="1.26"/><path class="cls-51" d="M187.55,185.09a1.26,1.26,0,1,1-1.26-1.26A1.25,1.25,0,0,1,187.55,185.09Z"/><circle class="cls-51" cx="265.42" cy="246.64" r="1.26"/><path class="cls-51" d="M258.21,153.51a1.26,1.26,0,1,1-1.25-1.26A1.26,1.26,0,0,1,258.21,153.51Z"/><path class="cls-51" d="M239.44,187.43a1.26,1.26,0,1,1-1.26-1.26A1.27,1.27,0,0,1,239.44,187.43Z"/><circle class="cls-51" cx="225.44" cy="217.25" r="1.26"/><path class="cls-51" d="M221.92,213.48a1.26,1.26,0,1,1-1.26-1.26A1.25,1.25,0,0,1,221.92,213.48Z"/><path class="cls-52" d="M200,131.74a1.68,1.68,0,1,1-1.68-1.68A1.68,1.68,0,0,1,200,131.74Z"/><path class="cls-50" d="M214,133.41a1.68,1.68,0,1,1-1.68-1.67A1.68,1.68,0,0,1,214,133.41Z"/><path class="cls-52" d="M186.21,147.48a1.68,1.68,0,1,1-1.68-1.67A1.68,1.68,0,0,1,186.21,147.48Z"/><path class="cls-50" d="M224.77,165.91a1.68,1.68,0,1,1-1.68-1.68A1.68,1.68,0,0,1,224.77,165.91Z"/><path class="cls-51" d="M196.86,149a1.26,1.26,0,1,1-1.26-1.26A1.26,1.26,0,0,1,196.86,149Z"/><circle class="cls-51" cx="210.94" cy="161.97" r="1.26"/><path class="cls-51" d="M215,144.47a1.26,1.26,0,1,1-1.25-1.26A1.25,1.25,0,0,1,215,144.47Z"/><path class="cls-52" d="M490,158a1.68,1.68,0,1,1,1.55,1.79A1.67,1.67,0,0,1,490,158Z"/><path class="cls-50" d="M476.06,155.31a1.68,1.68,0,1,1,1.55,1.8A1.68,1.68,0,0,1,476.06,155.31Z"/><path class="cls-52" d="M504.86,143.34a1.67,1.67,0,1,1,1.55,1.8A1.68,1.68,0,0,1,504.86,143.34Z"/><path class="cls-50" d="M467.77,122.11a1.68,1.68,0,1,1,1.55,1.8A1.68,1.68,0,0,1,467.77,122.11Z"/><path class="cls-51" d="M494.35,141.05a1.26,1.26,0,1,1,1.16,1.35A1.27,1.27,0,0,1,494.35,141.05Z"/><path class="cls-51" d="M480,127a1.26,1.26,0,1,1,1.16,1.34A1.26,1.26,0,0,1,480,127Z"/><path class="cls-51" d="M475.88,144.21a1.26,1.26,0,1,1,1.16,1.35A1.26,1.26,0,0,1,475.88,144.21Z"/><path class="cls-52" d="M628,293.24a1.67,1.67,0,1,1,1.55,1.79A1.66,1.66,0,0,1,628,293.24Z"/><path class="cls-50" d="M614.08,290.53a1.67,1.67,0,1,1,1.55,1.79A1.67,1.67,0,0,1,614.08,290.53Z"/><path class="cls-52" d="M642.87,278.56a1.68,1.68,0,1,1,1.55,1.79A1.68,1.68,0,0,1,642.87,278.56Z"/><path class="cls-50" d="M605.79,257.33a1.67,1.67,0,1,1,1.55,1.79A1.67,1.67,0,0,1,605.79,257.33Z"/><path class="cls-51" d="M632.37,276.26a1.26,1.26,0,1,1,1.16,1.35A1.26,1.26,0,0,1,632.37,276.26Z"/><path class="cls-51" d="M618,262.18a1.25,1.25,0,1,1,1.16,1.35A1.25,1.25,0,0,1,618,262.18Z"/><path class="cls-51" d="M613.9,279.43a1.25,1.25,0,0,1,1.34-1.16,1.25,1.25,0,1,1-1.34,1.16Z"/><path class="cls-52" d="M706.9,266.74a1.68,1.68,0,1,1-1.67-1.67A1.68,1.68,0,0,1,706.9,266.74Z"/><path class="cls-50" d="M721,268.42a1.68,1.68,0,1,1-1.68-1.68A1.68,1.68,0,0,1,721,268.42Z"/><path class="cls-52" d="M693.16,282.49a1.68,1.68,0,1,1-1.68-1.68A1.68,1.68,0,0,1,693.16,282.49Z"/><path class="cls-50" d="M731.72,300.91a1.68,1.68,0,1,1-1.68-1.67A1.68,1.68,0,0,1,731.72,300.91Z"/><circle class="cls-51" cx="702.55" cy="284" r="1.26"/><circle class="cls-51" cx="717.89" cy="296.98" r="1.26"/><path class="cls-51" d="M722,279.47a1.26,1.26,0,1,1-1.25-1.25A1.25,1.25,0,0,1,722,279.47Z"/><path class="cls-52" d="M807.07,19.59A2.59,2.59,0,1,1,804.48,17,2.59,2.59,0,0,1,807.07,19.59Z"/><path class="cls-50" d="M828.81,22.18a2.59,2.59,0,1,1-2.59-2.59A2.59,2.59,0,0,1,828.81,22.18Z"/><path class="cls-52" d="M785.84,43.9a2.59,2.59,0,1,1-2.58-2.58A2.59,2.59,0,0,1,785.84,43.9Z"/><path class="cls-50" d="M845.38,72.35a2.59,2.59,0,1,1-2.59-2.58A2.59,2.59,0,0,1,845.38,72.35Z"/><circle class="cls-51" cx="800.34" cy="46.23" r="1.94"/><path class="cls-51" d="M826,66.28A1.94,1.94,0,1,1,824,64.34,1.94,1.94,0,0,1,826,66.28Z"/><circle class="cls-51" cx="828.42" cy="39.25" r="1.94"/><path class="cls-52" d="M239.35,33.08a2,2,0,1,1-2-2A2,2,0,0,1,239.35,33.08Z"/><path class="cls-52" d="M492.32,46.64a2,2,0,1,1-2-2A2,2,0,0,1,492.32,46.64Z"/><path class="cls-52" d="M493.66,15.82a2,2,0,1,1-2-2A2,2,0,0,1,493.66,15.82Z"/><path class="cls-52" d="M638.51,14.48a2,2,0,1,1-2-2A2,2,0,0,1,638.51,14.48Z"/><path class="cls-52" d="M727,13.14a2,2,0,1,1-2-2A2,2,0,0,1,727,13.14Z"/><path class="cls-52" d="M599.61,13.14a2,2,0,1,1-2-2A2,2,0,0,1,599.61,13.14Z"/><path class="cls-52" d="M225.77,52.67a2,2,0,1,1-2-2A2,2,0,0,1,225.77,52.67Z"/><path class="cls-50" d="M268.69,50.83A1.68,1.68,0,1,1,267,49.16,1.68,1.68,0,0,1,268.69,50.83Z"/><path class="cls-50" d="M233.49,93.38a1.68,1.68,0,1,1-1.68-1.68A1.68,1.68,0,0,1,233.49,93.38Z"/><path class="cls-50" d="M262.15,60.71A1.68,1.68,0,1,1,260.48,59,1.68,1.68,0,0,1,262.15,60.71Z"/><circle class="cls-51" cx="237.59" cy="54.68" r="1.26"/><path class="cls-52" d="M243.54,66.07a2,2,0,1,1-2-2A2,2,0,0,1,243.54,66.07Z"/><path class="cls-52" d="M274.05,75.29a2,2,0,1,1-2-2A2,2,0,0,1,274.05,75.29Z"/><path class="cls-50" d="M451.75,16.16a1.68,1.68,0,1,1-1.67-1.68A1.67,1.67,0,0,1,451.75,16.16Z"/><path class="cls-50" d="M416.55,58.7A1.68,1.68,0,1,1,414.87,57,1.68,1.68,0,0,1,416.55,58.7Z"/><path class="cls-50" d="M445.22,26a1.68,1.68,0,1,1-1.68-1.67A1.68,1.68,0,0,1,445.22,26Z"/><circle class="cls-51" cx="420.66" cy="20.01" r="1.26"/><path class="cls-52" d="M426.61,31.4a2,2,0,1,1-2-2A2,2,0,0,1,426.61,31.4Z"/><path class="cls-52" d="M457.12,40.61a2,2,0,1,1-2-2A2,2,0,0,1,457.12,40.61Z"/><path class="cls-52" d="M86,80.81a1.34,1.34,0,1,1-1.34-1.34A1.34,1.34,0,0,1,86,80.81Z"/><path class="cls-52" d="M90,29.22a3.35,3.35,0,1,1-3.35-3.35A3.35,3.35,0,0,1,90,29.22Z"/><path class="cls-52" d="M81.94,49.32a1.68,1.68,0,1,1-1.68-1.67A1.68,1.68,0,0,1,81.94,49.32Z"/><path class="cls-52" d="M37,19.84a1.68,1.68,0,1,1-1.68-1.67A1.68,1.68,0,0,1,37,19.84Z"/><path class="cls-50" d="M64.84,40.61a1.68,1.68,0,1,1-1.68-1.67A1.68,1.68,0,0,1,64.84,40.61Z"/><path class="cls-53" d="M37.68,50a1.34,1.34,0,1,1-1.34-1.34A1.34,1.34,0,0,1,37.68,50Z"/><path class="cls-53" d="M74.9,31.57a1,1,0,1,1-1-1A1,1,0,0,1,74.9,31.57Z"/><path class="cls-53" d="M69.2,39.94a1,1,0,1,1-1-1A1,1,0,0,1,69.2,39.94Z"/><path class="cls-53" d="M64.17,28.55a1,1,0,1,1-1-1A1,1,0,0,1,64.17,28.55Z"/><path class="cls-52" d="M14.55,81.82a1.68,1.68,0,1,1-1.68-1.68A1.68,1.68,0,0,1,14.55,81.82Z"/><path class="cls-53" d="M20.92,42.46a1,1,0,1,1-1-1A1,1,0,0,1,20.92,42.46Z"/><path class="cls-53" d="M15.72,60.21a1,1,0,1,1-1-1A1,1,0,0,1,15.72,60.21Z"/><path class="cls-53" d="M22.09,55.19a1,1,0,1,1-1-1A1,1,0,0,1,22.09,55.19Z"/><path class="cls-52" d="M15.89,13.14a1.35,1.35,0,1,1-1.34-1.34A1.34,1.34,0,0,1,15.89,13.14Z"/><path class="cls-53" d="M27,27.21a1.34,1.34,0,1,1-1.34-1.34A1.34,1.34,0,0,1,27,27.21Z"/><path class="cls-52" d="M316.31,86.18a3.35,3.35,0,1,1,2.22,4.19A3.35,3.35,0,0,1,316.31,86.18Z"/><path class="cls-52" d="M329.91,69.33a1.68,1.68,0,1,1,1.11,2.1A1.69,1.69,0,0,1,329.91,69.33Z"/><path class="cls-52" d="M364.18,110.71a1.67,1.67,0,1,1,1.11,2.09A1.68,1.68,0,0,1,364.18,110.71Z"/><circle class="cls-50" cx="345.3" cy="83.17" r="1.68" transform="translate(258.44 427.56) rotate(-89.39)"/><path class="cls-53" d="M372.41,81.7a1.34,1.34,0,1,1,.89,1.67A1.34,1.34,0,0,1,372.41,81.7Z"/><path class="cls-53" d="M331.42,88.37a1,1,0,0,1,1.92.59,1,1,0,1,1-1.92-.59Z"/><path class="cls-53" d="M339.33,82a1,1,0,0,1,1.26-.66,1,1,0,0,1,.66,1.25,1,1,0,0,1-1.25.67A1,1,0,0,1,339.33,82Z"/><path class="cls-53" d="M340.79,94.41a1,1,0,0,1,1.25-.67,1,1,0,1,1-.59,1.92A1,1,0,0,1,340.79,94.41Z"/><path class="cls-52" d="M403.89,58.07a1.67,1.67,0,1,1,1.11,2.1A1.67,1.67,0,0,1,403.89,58.07Z"/><path class="cls-53" d="M386.22,93.83a1,1,0,0,1,1.25-.67,1,1,0,1,1-.59,1.92A1,1,0,0,1,386.22,93.83Z"/><circle class="cls-53" cx="397.37" cy="78.68" r="1.01" transform="translate(-1.15 6.05) rotate(-0.87)"/><path class="cls-53" d="M388.84,81.31a1,1,0,0,1,1.26-.66,1,1,0,0,1,.66,1.25,1,1,0,0,1-1.25.67A1,1,0,0,1,388.84,81.31Z"/><path class="cls-52" d="M382.4,123.32a1.34,1.34,0,1,1,2.56.79,1.34,1.34,0,1,1-2.56-.79Z"/><path class="cls-53" d="M376,106.62a1.34,1.34,0,1,1,.89,1.68A1.35,1.35,0,0,1,376,106.62Z"/><path class="cls-52" d="M508.42,83.83a3.36,3.36,0,1,1-3.36-3.35A3.35,3.35,0,0,1,508.42,83.83Z"/><path class="cls-52" d="M500.37,103.93a1.68,1.68,0,1,1-1.68-1.68A1.68,1.68,0,0,1,500.37,103.93Z"/><path class="cls-52" d="M455.44,74.45a1.68,1.68,0,1,1-1.67-1.68A1.67,1.67,0,0,1,455.44,74.45Z"/><path class="cls-50" d="M483.27,95.22a1.68,1.68,0,1,1-1.68-1.68A1.68,1.68,0,0,1,483.27,95.22Z"/><path class="cls-53" d="M456.11,104.6a1.34,1.34,0,1,1-1.34-1.34A1.34,1.34,0,0,1,456.11,104.6Z"/><path class="cls-53" d="M493.33,86.17a1,1,0,1,1-1-1A1,1,0,0,1,493.33,86.17Z"/><path class="cls-53" d="M487.63,94.55a1,1,0,1,1-1-1A1,1,0,0,1,487.63,94.55Z"/><path class="cls-53" d="M482.6,83.16a1,1,0,1,1-1-1A1,1,0,0,1,482.6,83.16Z"/><path class="cls-52" d="M433,136.43a1.68,1.68,0,1,1-1.68-1.68A1.68,1.68,0,0,1,433,136.43Z"/><path class="cls-53" d="M439.35,97.06a1,1,0,1,1-1-1A1,1,0,0,1,439.35,97.06Z"/><path class="cls-53" d="M434.15,114.82a1,1,0,1,1-1-1A1,1,0,0,1,434.15,114.82Z"/><path class="cls-53" d="M440.52,109.79a1,1,0,1,1-1-1A1,1,0,0,1,440.52,109.79Z"/><path class="cls-52" d="M434.32,67.75A1.34,1.34,0,1,1,433,66.41,1.34,1.34,0,0,1,434.32,67.75Z"/><path class="cls-53" d="M445.38,81.82A1.34,1.34,0,1,1,444,80.48,1.34,1.34,0,0,1,445.38,81.82Z"/><path class="cls-52" d="M843.86,277a4,4,0,1,1-4-4A4,4,0,0,1,843.86,277Z"/><circle class="cls-52" cx="832.3" cy="300.93" r="1.99"/><path class="cls-52" d="M780.86,265.87a2,2,0,1,1-2-2A2,2,0,0,1,780.86,265.87Z"/><circle class="cls-50" cx="811.96" cy="290.57" r="1.99"/><path class="cls-53" d="M781.66,301.73a1.6,1.6,0,1,1-1.6-1.59A1.6,1.6,0,0,1,781.66,301.73Z"/><circle class="cls-53" cx="824.72" cy="279.82" r="1.2"/><circle class="cls-53" cx="817.94" cy="289.78" r="1.2"/><circle class="cls-53" cx="811.96" cy="276.23" r="1.2"/><path class="cls-52" d="M754.14,339.58a2,2,0,1,1-2-2A2,2,0,0,1,754.14,339.58Z"/><circle class="cls-53" cx="760.52" cy="292.76" r="1.2"/><path class="cls-53" d="M755.54,313.88a1.2,1.2,0,1,1-2.39,0,1.2,1.2,0,0,1,2.39,0Z"/><circle class="cls-53" cx="761.92" cy="307.91" r="1.2"/><path class="cls-52" d="M755.74,257.9a1.6,1.6,0,1,1-1.6-1.59A1.6,1.6,0,0,1,755.74,257.9Z"/><path class="cls-53" d="M768.9,274.64a1.6,1.6,0,1,1-1.6-1.6A1.6,1.6,0,0,1,768.9,274.64Z"/></g></g></svg>